<svg width="320" height="320" viewBox="0 0 320 320" fill="none" xmlns="http://www.w3.org/2000/svg">
<path opacity="0.2" d="M320 169.412C320 252.574 252.574 320 169.412 320C86.2494 320 18.8235 252.574 18.8235 169.412C18.8235 86.2494 86.2494 18.8235 169.412 18.8235C252.574 18.8235 320 86.2494 320 169.412Z" fill="#261C3A" style="fill:#261C3A;fill:color(display-p3 0.1490 0.1098 0.2275);fill-opacity:1;"/>
<path fill-rule="evenodd" clip-rule="evenodd" d="M158.444 80.6023C138.555 80.6023 119.48 88.5034 105.416 102.567C91.352 116.631 83.451 135.706 83.451 155.595C83.451 175.485 91.352 194.559 105.416 208.623C119.48 222.687 138.555 230.588 158.444 230.588C178.333 230.588 197.408 222.687 211.472 208.623C225.536 194.559 233.437 175.485 233.437 155.595C233.437 135.706 225.536 116.631 211.472 102.567C197.408 88.5034 178.333 80.6023 158.444 80.6023ZM70.902 155.608C70.7633 144.024 72.925 132.528 77.2619 121.786C81.5987 111.045 88.0245 101.27 96.1667 93.0299C104.309 84.7896 114.006 78.2473 124.695 73.7821C135.384 69.317 146.853 67.0178 158.438 67.0178C170.022 67.0178 181.491 69.317 192.18 73.7821C202.87 78.2473 212.566 84.7896 220.709 93.0299C228.851 101.27 235.277 111.045 239.613 121.786C243.95 132.528 246.112 144.024 245.973 155.608C245.698 178.642 236.354 200.64 219.968 216.831C203.581 233.022 181.474 242.102 158.438 242.102C135.402 242.102 113.294 233.022 96.9078 216.831C80.5217 200.64 71.1778 178.642 70.902 155.608Z" fill="#261C3A" style="fill:#261C3A;fill:color(display-p3 0.1490 0.1098 0.2275);fill-opacity:1;"/>
<path fill-rule="evenodd" clip-rule="evenodd" d="M60.2353 201.136C56.0062 209.506 56.6211 213.496 57.6251 214.965C58.4658 216.195 61.0886 217.951 68.1411 217.776C74.8674 217.6 83.9529 215.667 94.8956 211.89C116.718 204.361 144.565 189.992 173.139 170.453C201.6 151.002 223.147 130.435 236.16 113.054C242.685 104.333 246.877 96.6776 248.834 90.5663C250.842 84.2667 250.14 80.8784 249.048 79.2973C248.872 79.0337 248.458 78.5067 246.626 78.3184C244.593 78.1051 241.581 78.4188 237.352 79.4729C229.446 81.4431 219.269 85.4463 206.958 90.2902L204.361 91.3067L199.768 79.6361L202.704 78.469C214.626 73.7757 225.569 69.4714 234.328 67.3004C239.071 66.1208 243.74 65.4055 247.906 65.8322C252.273 66.2839 256.565 68.0533 259.413 72.2071C263.743 78.5443 263.253 86.6635 260.781 94.3937C258.234 102.325 253.189 111.247 246.199 120.584C232.182 139.307 209.531 160.778 180.216 180.819C150.99 200.797 122.14 215.768 98.9866 223.749C87.4666 227.727 77.0007 230.099 68.4549 230.312C60.2227 230.526 51.84 228.744 47.2721 222.055C42.0015 214.35 44.5615 204.323 49.029 195.464C53.7851 186.077 61.9921 175.36 72.6211 164.166L81.7192 172.825C71.4917 183.58 64.2007 193.28 60.2353 201.136Z" fill="#261C3A" style="fill:#261C3A;fill:color(display-p3 0.1490 0.1098 0.2275);fill-opacity:1;"/>
<path fill-rule="evenodd" clip-rule="evenodd" d="M156.863 301.176C236.562 301.176 301.176 236.562 301.176 156.863C301.176 77.1639 236.562 12.549 156.863 12.549C77.1639 12.549 12.549 77.1639 12.549 156.863C12.549 236.562 77.1639 301.176 156.863 301.176ZM156.863 313.725C243.501 313.725 313.725 243.501 313.725 156.863C313.725 70.2243 243.501 0 156.863 0C70.2243 0 0 70.2243 0 156.863C0 243.501 70.2243 313.725 156.863 313.725Z" fill="#261C3A" style="fill:#261C3A;fill:color(display-p3 0.1490 0.1098 0.2275);fill-opacity:1;"/>
</svg>
